<?xml version="1.0" encoding="UTF-8"?>
<svg id="Layer_1" data-name="Layer 1" xmlns="http://www.w3.org/2000/svg" viewBox="0 0 567.75 642.33">
  <defs>
    <style>
      .cls-1 {
        fill: #f4c000;
      }

      .cls-2 {
        fill: #bf2000;
      }

      .cls-3 {
        fill: #356a00;
      }
    </style>
  </defs>
  <path class="cls-2" d="m265.47,535.13c6.45,35.88,12.85,71.48,19.26,107.2H88.02c-.85-18.33-1.43-36.68-2.24-55.02-1.52-34.73-3.21-69.45-4.59-104.19-.27-6.9-3.24-12.45-6.5-18.17-7.45-13.09-14.73-26.29-21.94-39.53-6.2-11.4-12.28-22.86-18.25-34.38-8.84-17.03-17.53-34.13-26.31-51.2-2.2-4.27-4.78-8.38-6.65-12.79-1.06-2.53-1.95-5.73-1.35-8.26,4.39-18.53,9.15-36.97,13.87-55.42,5.69-22.27,11.48-44.51,17.16-66.78,4.73-18.55,9.42-37.1,13.99-55.69,1.91-7.76,3.63-15.59,5.11-23.45.72-3.82,2.91-4.96,6.23-4.45,8.95,1.38,17.86,2.99,26.8,4.4,19.15,3,38.21,6.81,57.47,8.66,20.43,1.96,41.05,2.83,61.57,2.65,13.67-.12,27.19.51,40.75,1.7,3.62.32,7.28.05,11.72.05-.45,7.3-.85,14.11-1.27,20.92-.93,14.8-1.91,29.6-2.75,44.4-.21,3.63-1.21,6.48-4.65,8.33-1.78.94-3.18,2.58-4.77,3.89-4,3.3-8.14,5.48-13.73,5.98-21.46,1.89-42.86,4.41-64.26,6.91-7.57.89-15.06,2.4-22.59,3.64-3.06.51-4.53,1.89-5,5.42-2.05,15.56-4.69,31.03-6.82,46.57-.32,2.36.33,5.23,1.47,7.36,17.28,32.38,34.7,64.7,52.13,97.01,20.14,37.32,40.33,74.61,60.49,111.93,5.63,10.42,11.2,20.87,16.72,31.16-7.86,7.03-18.93,8.99-24.33,19.18,9.87-2.65,19.74-5.29,29.97-8.03Z"/>
  <path class="cls-3" d="m560.42,223.97c-3.79,7.54-5.42,16.15-9.15,23.72-11.09,22.51-15.58,47.29-24.9,70.33-9.17,22.67-15.28,46.21-21.54,69.69-3.6,13.52-5.17,27.6-7.36,41.48-.59,3.77-1.69,6.37-4.77,9.15-4.92,4.46-8.9,10.1-12.72,15.63-7.01,10.14-13.49,20.64-20.43,30.83-7.42,10.89-15.27,21.5-22.64,32.43-5.09,7.55-9.15,15.44-6.96,25.28.93,4.22.16,8.8.39,13.21.55,10.55,1.59,21.1,1.78,31.66.29,15.43-.33,30.89.09,46.32.08,2.88.21,5.76.38,8.63h-141.08c-.59-18.8-1.19-37.6-2-56.39-.64-14.85-1.96-29.67-2.92-43.76,7.67-6.41,16.28-.46,24.71-4.56-4.36-3.63-7.87-7.01-11.83-9.75-9.29-6.41-18.83-12.44-28.14-18.82-1.64-1.13-3.01-3.03-3.83-4.87-1.9-4.26-3.13-8.83-5.1-13.05-4.12-8.87-8.35-17.71-12.89-26.37-7.64-14.59-15.57-29.03-23.34-43.55-10.21-19.05-20.33-38.15-30.58-57.18-11.28-20.96-22.69-41.86-34-62.81-.8-1.49-1.24-3.17-1.84-4.77.26-.4.52-.81.79-1.22,2.57.83,5.11,1.74,7.71,2.48,6.62,1.9,13.26,3.7,19.89,5.57,34.26,9.7,68.5,19.5,102.8,29.08,16.37,4.57,32.85,8.7,49.26,13.15,2.06.56,4.1,1.61,5.87,2.83,23.87,16.36,47.72,32.75,71.48,49.25,3.25,2.26,5.67,2.08,8.52-.57,16.46-15.29,33.12-30.37,49.45-45.79,2.78-2.64,4.39-6.56,6.41-9.96,10.13-16.99,20.15-34.05,30.35-51,9.44-15.67,19.14-31.19,28.56-46.86,4.6-7.65,8.79-15.54,13.3-23.25,1.52-2.6,3.45-4.96,5.3-7.58,3,3.89,3.23,6.93.98,11.39Z"/>
  <path class="cls-1" d="m352.57,340.71c-2.47-.89-4.08-1.53-5.72-2.05-17.16-5.41-34.35-10.74-51.48-16.24-6.38-2.05-12.55-4.77-18.95-6.73-7.24-2.22-14.61-4.09-21.99-5.81-3.74-.87-4.12-2.69-2.48-5.62,3.14-5.62,6.49-11.13,9.44-16.85,5.97-11.57,11.51-23.36,17.61-34.85,9.7-18.26,20.03-36.19,29.5-54.57,9-17.46,17.08-35.4,25.85-52.99,10.74-21.55,21.78-42.95,32.68-64.42,2.71-5.34,5.48-10.65,8.1-16.03,1.94-4,4.6-4.12,8.3-2.35,8.86,4.23,17.56,9.06,26.84,12.06,11.37,3.68,20.46,11.2,30.98,16.2,9.91,4.71,19.72,9.65,29.45,14.74,3.48,1.82,6.66,4.24,9.81,6.62.61.46.9,2.17.56,2.96-4.63,10.71-9.24,21.42-14.16,32-6.81,14.63-13.65,29.24-20.88,43.66-11.04,22-22.2,43.94-33.75,65.68-6.04,11.37-12.44,22.65-19.76,33.22-7.82,11.29-16.98,21.64-25.42,32.5-3.84,4.95-7.31,10.2-11.04,15.24-1.03,1.39-2.39,2.52-3.49,3.66Z"/>
  <path class="cls-1" d="m358.18,342.77c5.61-7.34,10.89-14.02,15.91-20.88,11.36-15.54,23.02-30.9,33.73-46.89,6.08-9.08,10.42-19.31,15.75-28.91,13.45-24.23,27.29-48.24,40.42-72.64,7.2-13.37,13.34-27.32,19.79-41.08,1.85-3.95,2.96-8.24,4.74-12.22,1.58-3.55,3.09-3.59,6.19-.73,6.8,6.29,13.72,12.45,20.41,18.85,7.09,6.78,13.83,13.92,20.98,20.63,4.05,3.8,8.63,7.04,12.98,10.53,5.38,4.3,10.66,8.75,16.21,12.83,3.1,2.28,3.08,4.18,1.14,7.3-12.78,20.57-25.34,41.28-38.06,61.89-8.02,12.99-16.36,25.79-24.22,38.88-7.25,12.08-13.92,24.5-21.08,36.63-4.39,7.44-8.86,14.88-13.99,21.81-2.69,3.63-7.04,5.98-10.35,9.22-8.8,8.63-17.47,17.39-26.13,26.17-1.63,1.66-2.88,3.69-4.42,5.45-2.33,2.66-5.29,2.73-7.87.84-13.63-9.97-27.22-19.99-40.66-30.22-7.21-5.49-14.08-11.43-21.47-17.47Z"/>
  <path class="cls-1" d="m261.73,125.9c-12.83-1.94-25.1-.48-37.65-3.8,4.1-13.51,7.98-26.33,11.89-39.14,5.83-19.05,11.78-38.06,17.44-57.16,1.04-3.51,2.98-4.05,5.88-3.36,18.94,4.51,37.75,9.36,56.07,16.18,12.99,4.84,26.45,8.41,39.74,12.44,9.31,2.82,10.98,5.46,7.15,14.28-10.92,25.13-21.57,50.41-33.43,75.09-8.87,18.47-19.86,35.93-29.17,54.2-10.37,20.34-19.82,41.15-29.87,61.65-4.19,8.55-9,16.79-13.31,25.28-2.97,5.84-5.68,11.81-8.31,17.81-1.92,4.37-4.56,5.92-8.59,3.77-15.38-8.21-32.28-11.62-48.94-15.8-6.08-1.53-12.34-2.31-18.38-3.98-2.4-.66-4.5-2.65-6.55-4.27-5.64-4.47-11-9.32-16.84-13.51-3.8-2.73-4.6-6.28-4.2-10.26.67-6.53,1.63-13.05,2.81-19.51.23-1.26,1.91-3.01,3.15-3.23,15-2.59,30.04-4.98,45.09-7.34,13.63-2.14,27.27-4.15,40.9-6.28.8-.13,1.58-.73,2.25-1.26,2.65-2.1,5.01-4.71,7.93-6.3,8.15-4.42,10.05-11.49,10.33-20.07.53-16.15,1.65-32.29,2.7-48.42.37-5.66,1.24-11.28,1.9-17.02Z"/>
  <path class="cls-1" d="m209.94,124.1c-10.02-.79-21.07-1.74-32.14-2.51-9.19-.64-18.41-.96-27.6-1.58-14.03-.95-28.05-2.03-42.07-3.06-1.76-.13-3.52-.33-5.28-.37-5.15-.13-6.79-2.23-5.21-7.34,2.73-8.82,5.82-17.53,8.5-26.37,2.55-8.39,4.72-16.9,7.2-25.32.86-2.91,2.2-5.68,3.25-8.54,1.6-4.37,3.05-8.8,4.73-13.14.5-1.3,1.33-2.68,2.4-3.51,12.57-9.63,25.43-18.9,37.74-28.84,5.17-4.18,10.29-4.06,15.88-2.6,19.68,5.15,39.37,10.3,58.98,15.72,6.74,1.86,7.88,3.9,6.12,10.69-4.08,15.73-8.58,31.35-12.77,47.05-3.73,13.98-7.37,27.98-10.85,42.02-1.5,6.05-2.9,7.72-8.89,7.71Z"/>
</svg>